<?xml version="1.0" standalone="no"?>
<!DOCTYPE svg PUBLIC "-//W3C//DTD SVG 20010904//EN"
 "http://www.w3.org/TR/2001/REC-SVG-20010904/DTD/svg10.dtd">
<svg version="1.0" xmlns="http://www.w3.org/2000/svg"
 width="700.000000pt" height="700.000000pt" viewBox="0 0 700.000000 700.000000"
 preserveAspectRatio="xMidYMid meet">
<metadata>
Created by potrace 1.11, written by Peter Selinger 2001-2013
</metadata>
<g transform="translate(0.000000,700.000000) scale(0.100000,-0.100000)"
fill="#000000" stroke="none">
<path d="M1750 5908 l0 -218 -27 0 c-381 -7 -400 -8 -453 -25 -180 -56 -327
-206 -376 -385 -18 -62 -18 -162 -18 -1990 0 -1059 4 -1943 7 -1965 4 -22 17
-65 29 -95 72 -182 223 -308 413 -344 70 -13 4254 -15 4343 -2 217 32 400 210
445 432 9 47 12 498 11 1970 0 1050 -4 1929 -8 1953 -26 155 -143 313 -285
386 -111 56 -144 60 -543 65 l-38 0 0 218 0 217 -322 -1 c-178 -1 -326 -2
-329 -3 -3 0 -5 -98 -5 -216 l1 -215 -30 -1 c-42 -1 -2060 -1 -2115 0 l-45 1
0 217 0 218 -327 0 -328 0 0 -217z m3827 -3035 l-2 -1448 -2075 0 -2075 0 -2
1448 -2 1447 2079 0 2079 0 -2 -1447z"/>
<path d="M3773 3282 c-52 -3 -53 -4 -53 -35 -1 -40 -1 -1236 0 -1259 0 -17 38
-18 655 -18 l655 0 0 655 0 655 -62 0 c-530 3 -1155 4 -1195 2z"/>
</g>
</svg>
